<svg width="30" height="30" viewBox="0 0 30 30" fill="none" xmlns="http://www.w3.org/2000/svg">
<path d="M29.4074 13.2424L16.3712 0.529695C16.1737 0.337079 15.9597 0.200321 15.7293 0.119422C15.4989 0.039807 15.252 0 14.9886 0C14.7252 0 14.4783 0.039807 14.2479 0.119422C14.0175 0.200321 13.8035 0.337079 13.606 0.529695L0.569764 13.2424C0.207647 13.5955 0.0180299 14.0366 0.000911626 14.5657C-0.0148898 15.096 0.174727 15.5538 0.569764 15.939C0.931881 16.3242 1.3842 16.5252 1.92672 16.5419C2.47055 16.5573 2.93998 16.3724 3.33502 15.9872L13.0134 6.54896L13.0134 28.0738C13.0134 28.6196 13.2024 29.0774 13.5803 29.4472C13.9595 29.8157 14.429 30 14.9886 30C15.5482 30 16.017 29.8157 16.3949 29.4472C16.7742 29.0774 16.9638 28.6196 16.9638 28.0738V6.54896L26.6422 15.9872C27.0043 16.3403 27.4652 16.5252 28.0248 16.5419C28.5845 16.5573 29.0453 16.3724 29.4074 15.9872C29.8025 15.634 30 15.1846 30 14.6388C30 14.0931 29.8025 13.6276 29.4074 13.2424V13.2424Z" fill="white"/>
</svg>
