<svg width="30" height="42" viewBox="0 0 30 42" fill="none" xmlns="http://www.w3.org/2000/svg">
<path d="M15 19.9583C13.6187 19.9583 12.2939 19.4096 11.3172 18.4328C10.3404 17.4561 9.79169 16.1313 9.79169 14.75C9.79169 13.3686 10.3404 12.0439 11.3172 11.0671C12.2939 10.0904 13.6187 9.54163 15 9.54163C16.3814 9.54163 17.7061 10.0904 18.6829 11.0671C19.6596 12.0439 20.2084 13.3686 20.2084 14.75C20.2084 15.4339 20.0736 16.1112 19.8119 16.7431C19.5501 17.375 19.1665 17.9492 18.6829 18.4328C18.1992 18.9164 17.6251 19.3001 16.9932 19.5618C16.3613 19.8236 15.684 19.9583 15 19.9583M15 0.166626C11.1323 0.166626 7.42295 1.70308 4.68805 4.43799C1.95314 7.17289 0.416687 10.8822 0.416687 14.75C0.416687 25.6875 15 41.8333 15 41.8333C15 41.8333 29.5834 25.6875 29.5834 14.75C29.5834 10.8822 28.0469 7.17289 25.312 4.43799C22.5771 1.70308 18.8678 0.166626 15 0.166626V0.166626Z" fill="url(#paint0_linear_32_3)"/>
<defs>
<linearGradient id="paint0_linear_32_3" x1="0.416687" y1="21" x2="29.5834" y2="21" gradientUnits="userSpaceOnUse">
<stop stop-color="#EE0979"/>
<stop offset="1" stop-color="#FF6A00"/>
</linearGradient>
</defs>
</svg>
