<svg width="154" height="41" viewBox="0 0 154 41" fill="none" xmlns="http://www.w3.org/2000/svg">
<path d="M38.336 11.81C37.6747 11.81 37.12 11.5825 36.672 11.1275C36.224 10.6725 36 10.1092 36 9.4375C36 8.76583 36.224 8.2025 36.672 7.7475C37.12 7.2925 37.6747 7.065 38.336 7.065C38.976 7.065 39.52 7.2925 39.968 7.7475C40.416 8.2025 40.64 8.76583 40.64 9.4375C40.64 10.1092 40.416 10.6725 39.968 11.1275C39.52 11.5825 38.976 11.81 38.336 11.81ZM40.128 14.1825V32.09H36.48V14.1825H40.128Z" fill="white"/>
<path d="M53.8135 13.89C55.2002 13.89 56.4375 14.1825 57.5255 14.7675C58.6348 15.3525 59.4988 16.2192 60.1175 17.3675C60.7362 18.5158 61.0455 19.9025 61.0455 21.5275V32.09H57.4295V22.08C57.4295 20.4767 57.0348 19.2525 56.2455 18.4075C55.4562 17.5408 54.3788 17.1075 53.0135 17.1075C51.6482 17.1075 50.5602 17.5408 49.7495 18.4075C48.9602 19.2525 48.5655 20.4767 48.5655 22.08V32.09H44.9175V14.1825H48.5655V16.23C49.1628 15.4933 49.9202 14.9192 50.8375 14.5075C51.7762 14.0958 52.7682 13.89 53.8135 13.89Z" fill="white"/>
<path d="M73.0908 17.205H69.8268V32.09H66.1468V17.205H64.0668V14.1825H66.1468V12.915C66.1468 10.8567 66.6801 9.36167 67.7468 8.43C68.8348 7.47667 70.5308 7 72.8348 7V10.0875C71.7254 10.0875 70.9467 10.3042 70.4987 10.7375C70.0507 11.1492 69.8268 11.875 69.8268 12.915V14.1825H73.0908V17.205Z" fill="white"/>
<path d="M83.9718 32.3825C82.3078 32.3825 80.8038 32.0033 79.4598 31.245C78.1158 30.465 77.0598 29.3817 76.2918 27.995C75.5238 26.5867 75.1397 24.9617 75.1397 23.12C75.1397 21.3 75.5344 19.6858 76.3237 18.2775C77.1131 16.8692 78.1904 15.7858 79.5558 15.0275C80.9211 14.2692 82.4464 13.89 84.1318 13.89C85.8171 13.89 87.3424 14.2692 88.7078 15.0275C90.0731 15.7858 91.1504 16.8692 91.9398 18.2775C92.7291 19.6858 93.1237 21.3 93.1237 23.12C93.1237 24.94 92.7184 26.5542 91.9078 27.9625C91.0971 29.3708 89.9877 30.465 88.5797 31.245C87.1931 32.0033 85.6571 32.3825 83.9718 32.3825ZM83.9718 29.165C84.9104 29.165 85.7851 28.9375 86.5958 28.4825C87.4278 28.0275 88.0998 27.345 88.6118 26.435C89.1237 25.525 89.3797 24.42 89.3797 23.12C89.3797 21.82 89.1344 20.7258 88.6438 19.8375C88.1531 18.9275 87.5024 18.245 86.6918 17.79C85.8811 17.335 85.0064 17.1075 84.0677 17.1075C83.1291 17.1075 82.2544 17.335 81.4438 17.79C80.6544 18.245 80.0251 18.9275 79.5558 19.8375C79.0864 20.7258 78.8518 21.82 78.8518 23.12C78.8518 25.0483 79.3318 26.5433 80.2918 27.605C81.2731 28.645 82.4998 29.165 83.9718 29.165Z" fill="white"/>
<path d="M95.514 23.12C95.514 21.2783 95.8767 19.6642 96.602 18.2775C97.3487 16.8692 98.3727 15.7858 99.674 15.0275C100.975 14.2692 102.469 13.89 104.154 13.89C106.287 13.89 108.047 14.41 109.434 15.45C110.842 16.4683 111.791 17.9308 112.282 19.8375H108.346C108.026 18.9492 107.514 18.2558 106.81 17.7575C106.106 17.2592 105.221 17.01 104.154 17.01C102.661 17.01 101.466 17.5517 100.57 18.635C99.6953 19.6967 99.258 21.1917 99.258 23.12C99.258 25.0483 99.6953 26.5542 100.57 27.6375C101.466 28.7208 102.661 29.2625 104.154 29.2625C106.266 29.2625 107.663 28.32 108.346 26.435H112.282C111.77 28.255 110.81 29.7067 109.402 30.79C107.994 31.8517 106.245 32.3825 104.154 32.3825C102.469 32.3825 100.975 32.0033 99.674 31.245C98.3727 30.465 97.3487 29.3817 96.602 27.995C95.8767 26.5867 95.514 24.9617 95.514 23.12Z" fill="white"/>
<path d="M132.078 22.6975C132.078 23.3692 132.035 23.9758 131.95 24.5175H118.478C118.584 25.9475 119.107 27.0958 120.046 27.9625C120.984 28.8292 122.136 29.2625 123.502 29.2625C125.464 29.2625 126.851 28.4283 127.662 26.76H131.597C131.064 28.4067 130.093 29.7608 128.685 30.8225C127.299 31.8625 125.571 32.3825 123.502 32.3825C121.816 32.3825 120.302 32.0033 118.958 31.245C117.635 30.465 116.59 29.3817 115.822 27.995C115.075 26.5867 114.702 24.9617 114.702 23.12C114.702 21.2783 115.064 19.6642 115.79 18.2775C116.536 16.8692 117.571 15.7858 118.894 15.0275C120.238 14.2692 121.774 13.89 123.502 13.89C125.166 13.89 126.648 14.2583 127.95 14.995C129.251 15.7317 130.264 16.7717 130.99 18.115C131.715 19.4367 132.078 20.9642 132.078 22.6975ZM128.27 21.5275C128.248 20.1625 127.768 19.0683 126.829 18.245C125.891 17.4217 124.728 17.01 123.341 17.01C122.083 17.01 121.006 17.4217 120.11 18.245C119.214 19.0467 118.68 20.1408 118.509 21.5275H128.27Z" fill="white"/>
<path d="M139.316 16.815C139.934 15.9917 140.777 15.2983 141.844 14.735C142.91 14.1717 144.115 13.89 145.459 13.89C146.995 13.89 148.393 14.28 149.652 15.06C150.932 15.8183 151.934 16.8908 152.659 18.2775C153.385 19.6642 153.747 21.2567 153.747 23.055C153.747 24.8533 153.385 26.4675 152.659 27.8975C151.934 29.3058 150.932 30.4108 149.652 31.2125C148.393 31.9925 146.995 32.3825 145.459 32.3825C144.115 32.3825 142.921 32.1117 141.876 31.57C140.83 31.0067 139.977 30.3133 139.316 29.49V40.605H135.668V14.1825H139.316V16.815ZM150.035 23.055C150.035 21.82 149.78 20.7583 149.268 19.87C148.777 18.96 148.115 18.2775 147.283 17.8225C146.473 17.3458 145.598 17.1075 144.659 17.1075C143.742 17.1075 142.867 17.3458 142.035 17.8225C141.225 18.2992 140.564 18.9925 140.052 19.9025C139.561 20.8125 139.316 21.885 139.316 23.12C139.316 24.355 139.561 25.4383 140.052 26.37C140.564 27.28 141.225 27.9733 142.035 28.45C142.867 28.9267 143.742 29.165 144.659 29.165C145.598 29.165 146.473 28.9267 147.283 28.45C148.115 27.9517 148.777 27.2367 149.268 26.305C149.78 25.3733 150.035 24.29 150.035 23.055Z" fill="white"/>
<path d="M13 18.05C11.7686 18.05 10.5877 17.5496 9.717 16.6588C8.8463 15.768 8.35714 14.5598 8.35714 13.3C8.35714 12.0402 8.8463 10.832 9.717 9.94124C10.5877 9.05044 11.7686 8.55 13 8.55C14.2314 8.55 15.4123 9.05044 16.283 9.94124C17.1537 10.832 17.6429 12.0402 17.6429 13.3C17.6429 13.9238 17.5228 14.5415 17.2894 15.1177C17.0561 15.694 16.7141 16.2177 16.283 16.6588C15.8519 17.0998 15.34 17.4497 14.7767 17.6884C14.2134 17.9271 13.6097 18.05 13 18.05M13 0C9.55219 0 6.24558 1.40125 3.80761 3.89548C1.36964 6.38971 0 9.77262 0 13.3C0 23.275 13 38 13 38C13 38 26 23.275 26 13.3C26 9.77262 24.6304 6.38971 22.1924 3.89548C19.7544 1.40125 16.4478 0 13 0V0Z" fill="white"/>
</svg>
